<?xml version="1.0" encoding="utf-8"?>
<!-- Generator: Adobe Illustrator 22.1.0, SVG Export Plug-In . SVG Version: 6.00 Build 0)  -->
<svg version="1.1" id="圖層_1" xmlns="http://www.w3.org/2000/svg" xmlns:xlink="http://www.w3.org/1999/xlink" x="0px" y="0px"
	 viewBox="0 0 90 90" style="enable-background:new 0 0 90 90;" xml:space="preserve">
<style type="text/css">
	.st0{display:none;}
	.st1{display:inline;}
	.st2{fill:none;stroke:#000000;stroke-width:0.5;stroke-miterlimit:10;}
	.st3{fill:none;stroke:#9B6E13;stroke-width:0.5;stroke-miterlimit:10;}
	.st4{fill:none;stroke:#DC6F85;stroke-width:0.5;stroke-miterlimit:10;}
	.st5{fill:none;stroke:#DC6F85;stroke-width:0.5;stroke-linecap:round;stroke-linejoin:round;stroke-miterlimit:10;}
	.st6{fill:none;}
	.st7{display:inline;fill:none;stroke:#000000;stroke-width:0.5;stroke-miterlimit:10;}
	.st8{display:inline;fill:none;}
	.st9{display:inline;fill:none;stroke:#197F3B;stroke-width:0.5;stroke-miterlimit:10;}
	.st10{display:inline;fill:none;stroke:#E06BA5;stroke-width:0.5;stroke-miterlimit:10;}
</style>
<g id="圖層_1_1_" class="st0">
	<g class="st1">
		<g>
			
				<image style="overflow:visible;enable-background:new    ;" width="1003" height="1010" xlink:href="54345A32.jpeg"  transform="matrix(0.1343 0 0 0.1343 38.5495 -30.3306)">
			</image>
		</g>
	</g>
	<path class="st1" d="M118.5,55.8c0.1,0,0.3,0,0.4,0c0,0.1,0,0.2,0,0.3c-0.2,0-0.3,0-0.5,0 M61.1,30c-0.1-6.6-0.5-13.2-2.3-19.6
		C58.5,9.2,58,8,57.5,6.9c-0.9-1.9-2.4-3-4.3-3.8c-1.5-0.7-3.2-1-4.9-1.2c-0.2,1.6-1.1,2.7-2.4,3.5c-0.4,0.3-0.9,0.6-1.3,0.9
		c-0.6-0.7,0-2.7,1.7-4.5c-2.4,0.7-4.5,1.9-6.2,3.6c0.3,0.4,0.5,0.7,0.7,1.1c0.1,0.2,0.1,0.4,0,0.6c-0.1,0.1-0.4,0.1-0.5,0.1
		c0.3,1.8,0.7,3.6,1,5.4c0.3,1.7,0.1,2-1.6,1.9c0,0-0.1,0-0.2,0.1c0.3,0.1,0.5,0.2,0.7,0.3c-0.6,0.6-4.1,0.3-4.9-0.4
		c-0.1,0.1-0.2,0.2-0.4,0.2c-0.3,0.2-0.5,0.1-0.7-0.3c0-0.1-0.1-0.3-0.1-0.4c-0.1-1.7-0.1-3.3,0.4-5c0.3-1.3,1.1-2.4,2.3-3
		c-0.5,0-1,0.1-1.5,0.1c0-0.1,0-0.1-0.1-0.2c0.2-0.1,0.3-0.3,0.5-0.3c1-0.2,2-0.3,3-0.4c0.2,0,0.4-0.1,0.6-0.2
		c0.6-0.4,1.2-0.8,1.7-1.2c3.2-2.5,6.7-2.9,10.5-2c3.6,0.8,5.9,2.8,7.2,6.3c1.5,4.2,2.6,8.6,3.2,13c0.3,1.9,0.4,3.9,0.5,5.8
		c0.1,1,0,2.1,0,3.2 M34.6,14.2c0.1,0,0.1,0.1,0.2,0.1c0.7-0.7,1.4-1.3,2-2.1c0.3-0.4,0.3-1,0.4-1.5c0.1-0.9,0.1-1.7,0.2-2.6
		c0-0.2,0.2-0.3,0.4-0.5c0.1,0.2,0.3,0.4,0.3,0.5c-0.1,0.9-0.1,1.9-0.3,2.8c-0.2,1,0.2,1.7,0.7,2.5c0.4,0.6,1,0.4,1.5,0.5
		c0.1,0,0.3,0,0.5,0c0.5,0,0.7-0.2,0.7-0.7c-0.3-2.2-0.6-4.4-1.4-6.6C39.5,6.2,39.1,6,38.5,6c-1.2,0.1-2.3,0.6-2.9,1.6
		C34.4,9.7,34.5,12,34.6,14.2z M45,5.7c0.5-0.4,1-0.7,1.4-1.1c0.5-0.6,1-1.3,1.4-2c0.1-0.2,0-0.6,0-0.9C45.7,2.5,44.8,3.9,45,5.7z
		 M36.5,13.4c0.5,0,0.9,0,1.4,0c-0.2-0.4-0.3-0.8-0.5-1.2C37.1,12.7,36.8,13,36.5,13.4z M53.2,2.5c1.1,0.7,2.3,1.4,3.4,2.1
		C55.8,3.6,54.5,3,53.2,2.5z M35.8,14.2c0,0.1,0,0.1,0,0.2c0.4,0.1,0.7,0.2,1,0.2c0.1-0.3,0.2-0.5,0.3-0.9
		C36.7,13.9,36.3,14,35.8,14.2z M40.4,6.7c0-0.7-1-0.8-0.6-1.6c-0.2,0.1-0.3,0.2-0.5,0.3C39.7,5.8,40,6.2,40.4,6.7z M38.9,14.7
		c-0.5-0.5-0.5-0.5-1,0C38.2,14.7,38.6,14.7,38.9,14.7z"/>
</g>
<g id="圖層_2_1_" class="st0">
</g>
<g id="圖層_3">
	<path class="st2" d="M21.7,86.4c3.7,0,6.7,0.4,9.2-2.7c0.9-1.2,1.6-2.6,2.8-3.8c1.4-1.5,3.2-2.6,4.7-4c3.1-2.8,5.4-3.7,9.6-3.9
		c2-0.1,2.8,0,4-1.7c0.7-1,1.1-2.3,1.8-3.2c0.6-0.8,1.8-1.3,2.1-2.1c-1.8-0.6-3.8-0.2-5.2,1c-2.4,2.1-1.4,3.5,0,5.7
		c-0.3-1.4,0-10.5-2.5-9.1c-2.2,1.2,1,4,1.6,4.9c1,1.5,0.6,3.5,1.2,5.2c2.6,0.1,5.4-0.4,7.7,0.7c1.4,0.7,2.2,2.1,3.6,2.9
		c1.1,0.6,2.4,0.3,3.4,1c2.3,1.4,3.1,5.3,5.2,7.2c2.4,2.1,7.4,1.4,10.5,2.2"/>
	<path class="st2" d="M50.4,71.2c-2.8-2.7-1.7-9.8-1.7-13.4c0-5-1.3-9.5-2.4-14.2c-1.9-8-8.1-14.8-16.7-14.8
		c-5.8,0.1-9.3,2.7-14.4,4.4c-0.4-1.8,7.2-3.4,8.7-3.9c3.2-1.1,7.5-2.2,10.8-0.8c7.5,3.2,11.6,10.7,13.9,18
		c2.5,8.1,2.1,17.1,2.1,25.7"/>
	<path class="st3" d="M27.6,29.3c-1.2,0.3-2.8,2.9-3.1,4.1c-0.3,1.1-0.5,6.6,0.6,7.2C27,37.8,27.6,32.7,27.6,29.3"/>
	<path class="st4" d="M17.8,36.4c0.4,1.8,0.2,3.7,0.4,5.6c0.2,1.7,0.7,3.3,0.5,5.2c-5.1,0.1-8.1-6.6-4.8-10.3
		c0.5,2.4-3.3,8.7-5.7,9.4c-0.2-3-0.5-6.4,0.6-9.3c0.5-1.3,1.2-2.4,2.4-3.1c1.4-0.8,3.2-0.2,4.4-1.1c0.3,0.7,0.3,1.9,0.7,2.6
		c0.1,0.1,1.6,1.8,1.7,1.1c0.2-1.4-0.8-3.3-1.5-4.6"/>
	<path class="st5" d="M9.4,45.5c1.2-0.1,5.8,2.7,5.6,0.4c-0.2-1.5-5.1-2.1-5.3,0c1,0.5,2.2,0.5,3.1,1c0-0.4,0.1-1.1,0-1.7
		c2,0.2-0.8,2.3-1,0.2c0.9,0,0.9,0.9,0.7,1.7c-0.2-0.4-0.2-1-0.1-1.5c0,0,0.5,0,0.5,0c0.1,0.3,0,0.6,0,0.9c-0.3,0.1-0.8,0.1-1.1,0
		c-0.2-0.3-0.2-0.7-0.2-1c0.4-0.1,1.1-0.2,1.5,0c0,0.3,0.1,0.6,0,0.9c-0.9,0.1-1-0.2-0.9-1.1c0.3-0.1,0.8-0.1,1.1,0
		c0.3,0.9,0.1,1.6-0.9,1.5"/>
	<path class="st6" d="M24.3,41.4c0-0.1,0-0.1,0-0.2"/>
</g>
<g id="圖層_3_拷貝" class="st0">
	<path class="st7" d="M21.7,86.4c3.7,0,6.7,0.4,9.2-2.7c0.9-1.2,1.6-2.6,2.8-3.8c1.4-1.5,3.2-2.6,4.7-4c3.1-2.8,5.4-3.7,9.6-3.9
		c2-0.1,2.8,0,4-1.7c0.7-1,1.1-2.3,1.8-3.2c0.6-0.8,1.8-1.3,2.1-2.1c-1.8-0.6-3.8-0.2-5.2,1c-2.4,2.1-1.4,3.5,0,5.7
		c-0.3-1.4,0-10.5-2.5-9.1c-2.2,1.2,1,4,1.6,4.9c1,1.5,0.6,3.5,1.2,5.2c2.6,0.1,5.4-0.4,7.7,0.7c1.4,0.7,2.2,2.1,3.6,2.9
		c1.1,0.6,2.4,0.3,3.4,1c2.3,1.4,3.1,5.3,5.2,7.2c2.4,2.1,7.4,1.4,10.5,2.2"/>
	<path class="st7" d="M50.4,71.2c-2.8-2.7-1.7-9.8-1.7-13.4c0-5-1.3-9.5-2.4-14.2c-1.1-4.4-0.5-1.7-0.7-5.7
		c-0.2-5.8-1.4-9.6-1.4-9.6c-0.4-1.8-1.1-2.3,0.2-1.4c0.5,0.4,1.2,2.6,1.6,5.6c1,8.1,0.2,6.6,2.4,13.9c2.5,8.1,2.1,17.1,2.1,25.7"/>
	<path class="st8" d="M24.3,41.4c0-0.1,0-0.1,0-0.2"/>
	<path class="st9" d="M47.8,44.3c-0.7-1.2-1.3-2.8-2.7-3.5c-1.2-0.6-3-0.5-4.4-0.5c-1.8,0-3.2,0.6-4.7,1.4c-1.1,0.6-3.4,1.5-3.7,2.7
		c1.4,0.7,4.3,0.3,5.8,0c2-0.4,4.6-1.3,5.9-2.9c1.3-1.5,1.8-3.9,0.3-5.4c-1.3-1.4-3.7-2.8-5.6-2.9c-0.7,1.4,2.7,5.1,3.6,6
		c1,1,1.9,1.8,3.4,2.1c1.1,0.2,2.2-0.3,3.4-0.2c0.2,1.2-2,2-2.9,1.5c-1.3-0.8-0.1-2.5,0.5-3.3c1-1.3,3-2.8,4.6-3.2
		c0.9-0.2,3.7,0.1,2.4,1.6c-0.7,0.8-3.6,0.3-4.7,0.3c-1.3,0-3.4,0.2-2.3-1.8c0.9-1.6,4.2-2.7,5.7-3.4c0.5-0.2,1.3-0.7,1.9-0.5
		c1.2,0.5,0,1.2-0.7,1.5c-3.4,1.2-7.3-0.7-8.6,3.7"/>
	<path class="st10" d="M45.6,33c-1.3-0.4-1.5-3.5-1.5-4.8c-0.1-1.4,0.3-2,1.8-2c1.5,0,2.5,1.1,4,1.1c1.4,0,1.7-1.1,2.9-1.5
		c2.4-0.8,4.8-1.8,5.3-4.6c0.2-1.2,0.7-2.1,0.4-3.1c-0.4-1.1-1.5-1.9-2.5-2.6c-0.8-0.6-1.6-0.9-2.3-1.8c-0.9-1-1.3-1.6-2.7-1.8
		c-3.3-0.5-7.1-0.5-10,1.1c-3.1,1.7-1.8,3.7-0.9,6.4c0.7,2-0.9,4.9,1.6,5.5c1.1,0.2,2.5,0.3,3.6,0.2c1.7-0.1,1.7-1.1,0.8-2.2
		c-1.6-1.8-4-3.1-2.6-5.9c0.4-0.9,1.2-2,2.1-2.5c1.1-0.7,1.7-0.1,2.8,0.4c2.2,1,5.8-0.3,7.1,1.8c1.3,2,1,5.2-1.5,6
		c-2.7,0.9-7.1,0.4-8.2-2.5c-0.3-0.9-0.6-2.6,0.5-3.2c0.7-0.4,2.4-0.1,3.3-0.1c1.8,0,6.4,0.5,4.3,3.4c-0.6,0.9-2.4,1.2-3.3,0.7
		c-0.3-0.1-1.8-1.4-1.8-1.7c-0.2-1.3,3.9-2.1,3.5,0.7c-1.5,0.2-1.9-1.3-0.6-1c0,0.3-0.1,0.3-0.4,0.5"/>
</g>
</svg>
