<!--?xml version="1.0" encoding="utf-8"?-->
<!-- Generator: Adobe Illustrator 16.0.0, SVG Export Plug-In . SVG Version: 6.00 Build 0)  -->

<svg version="1.1" id="圖層_3" xmlns="http://www.w3.org/2000/svg" xmlns:xlink="http://www.w3.org/1999/xlink" x="0px" y="0px" width="39.032px" height="41.213px" viewBox="0 0 39.032 41.213" enable-background="new 0 0 39.032 41.213" xml:space="preserve" style="">
<path fill="none" stroke="#4C3221" stroke-linecap="square" stroke-linejoin="round" stroke-miterlimit="10" d="M24.808,24.255
	c-1.658-1.136-3.612-1.162-4.369-0.057" class="zokRMnzp_0"></path>
<path fill="none" stroke="#4C3221" stroke-linecap="square" stroke-linejoin="round" stroke-miterlimit="10" d="M20.439,24.199
	c-1.658-1.136-3.612-1.162-4.37-0.057" class="zokRMnzp_1"></path>
<path fill="none" stroke="#4C3221" stroke-linecap="square" stroke-linejoin="round" stroke-miterlimit="10" d="M16.069,24.142
	c-1.658-1.137-3.612-1.162-4.369-0.057" class="zokRMnzp_2"></path>
<path fill="none" stroke="#337D2D" stroke-linecap="square" stroke-linejoin="round" stroke-miterlimit="10" d="M17.299,23.386
	c0-5.324,2.381-9.632,5.324-9.632" class="zokRMnzp_3"></path>
<path fill="none" stroke="#337D2D" stroke-linecap="square" stroke-linejoin="round" stroke-miterlimit="10" d="M18.015,18.57
	c0-3.975-2.825-7.191-6.315-7.191" class="zokRMnzp_4"></path>
<path fill="none" stroke="#337D2D" stroke-linecap="square" stroke-linejoin="round" stroke-miterlimit="10" d="M11.7,11.379
	c0,3.975,2.825,7.191,6.315,7.191" class="zokRMnzp_5"></path>
<path fill="none" stroke="#337D2D" stroke-linecap="square" stroke-linejoin="round" stroke-miterlimit="10" d="M23.199,13.754
	c0,2.662-2.318,4.816-5.184,4.816" class="zokRMnzp_6"></path>
<path fill="none" stroke="#6BB92D" stroke-width="0.25" stroke-linecap="square" stroke-linejoin="round" stroke-miterlimit="10" d="
	M12.097,11.933c0.957,0.632,1.497,1.75,2.102,2.683c0.642,0.988,1.484,2.815,2.481,3.401" class="zokRMnzp_7"></path>
<path fill="none" stroke="#6BB92D" stroke-width="0.25" stroke-linecap="square" stroke-linejoin="round" stroke-miterlimit="10" d="
	M12.097,11.933c1.23-0.013,2.612,2.401,3.144,3.152c0.829,1.17,0.479,2.108,1.625,2.961" class="zokRMnzp_8"></path>
<path fill="none" stroke="#6BB92D" stroke-width="0.25" stroke-linecap="square" stroke-linejoin="round" stroke-miterlimit="10" d="
	M12.575,12.04c0.876,0.167,2.753,1.714,3.249,2.423c0.593,0.849,0.128,3.096,1.292,3.667" class="zokRMnzp_9"></path>
<path fill="none" stroke="#6BB92D" stroke-width="0.25" stroke-linecap="square" stroke-linejoin="round" stroke-miterlimit="10" d="
	M19.01,17.837c1.649-0.869,2.645-1.561,3.355-3.375" class="zokRMnzp_10"></path>
<path fill="none" stroke="#6BB92D" stroke-width="0.25" stroke-linecap="square" stroke-linejoin="round" stroke-miterlimit="10" d="
	M18.824,18.046c0.651-0.584,1.286-1.632,1.796-2.044c0.594-0.479,1.138-1.116,1.746-1.539" class="zokRMnzp_11"></path>
<style data-made-with="vivus-instant">.zokRMnzp_0{stroke-dasharray:5 7;stroke-dashoffset:6;animation:zokRMnzp_draw 158ms linear 0ms forwards;}.zokRMnzp_1{stroke-dasharray:5 7;stroke-dashoffset:6;animation:zokRMnzp_draw 158ms linear 158ms forwards;}.zokRMnzp_2{stroke-dasharray:5 7;stroke-dashoffset:6;animation:zokRMnzp_draw 158ms linear 316ms forwards;}.zokRMnzp_3{stroke-dasharray:12 14;stroke-dashoffset:13;animation:zokRMnzp_draw 343ms linear 475ms forwards;}.zokRMnzp_4{stroke-dasharray:11 13;stroke-dashoffset:12;animation:zokRMnzp_draw 316ms linear 818ms forwards;}.zokRMnzp_5{stroke-dasharray:11 13;stroke-dashoffset:12;animation:zokRMnzp_draw 316ms linear 1135ms forwards;}.zokRMnzp_6{stroke-dasharray:8 10;stroke-dashoffset:9;animation:zokRMnzp_draw 237ms linear 1452ms forwards;}.zokRMnzp_7{stroke-dasharray:8 10;stroke-dashoffset:9;animation:zokRMnzp_draw 237ms linear 1690ms forwards;}.zokRMnzp_8{stroke-dasharray:9 11;stroke-dashoffset:10;animation:zokRMnzp_draw 264ms linear 1928ms forwards;}.zokRMnzp_9{stroke-dasharray:9 11;stroke-dashoffset:10;animation:zokRMnzp_draw 264ms linear 2192ms forwards;}.zokRMnzp_10{stroke-dasharray:5 7;stroke-dashoffset:6;animation:zokRMnzp_draw 158ms linear 2456ms forwards;}.zokRMnzp_11{stroke-dasharray:6 8;stroke-dashoffset:7;animation:zokRMnzp_draw 184ms linear 2615ms forwards;}@keyframes zokRMnzp_draw{100%{stroke-dashoffset:0;}}@keyframes zokRMnzp_fade{0%{stroke-opacity:1;}94.28571428571429%{stroke-opacity:1;}100%{stroke-opacity:0;}}</style></svg>
